{"title":"Sex And The City 2 2010 720p.BRRip.H264.Feel-Free","uid":5889276,"size":1990540403,"categoryP":"video","categoryS":"hd___movies","magnet":"?xt=urn:btih:9d5726fade78ca93b68b47513b450043aa5905c1&amp;dn=+Sex+And+The+City+2+2010+720p.BRRip.H264.Feel-Free&amp;tr=udp%3A%2F%2Ftracker.openbittorrent.com%3A80&amp;tr=udp%3A%2F%2Fopen.demonii.com%3A1337&amp;tr=udp%3A%2F%2Ftracker.coppersurfer.tk%3A6969&amp;tr=udp%3A%2F%2Fexodus.desync.com%3A6969","seeders":0,"leechers":1,"uploader":"neon","files":-1,"time":1287172731,"description":"While wrestling with the pressures of life, love, and work in Manhattan, Carrie, Miranda, and Charlotte join Samantha for a trip to Abu Dhabi (United Arab Emirates), where Samantha's ex is filming a new movie.\n\nGenre:Comedy | Drama | Romance\nLanguage:English\n &lt;a href=&quot; http://www.imdb.com/title/tt1261945/&quot; rel=&quot;nofollow&quot; target=&quot;_NEW&quot;&gt; http://www.imdb.com/title/tt1261945/&lt;/a&gt;\nSource:720p.BluRay.x264-SiNNERS\n\nGeneral\nComplete name :Sex.And.The.City.2.2010.720p.BRRip.H264.Feel-Free\nFormat : MPEG-4\nFormat profile : Base Media\nCodec ID : isom\nFile size : 1.85 GiB\nDuration : 2h 26mn\nOverall bit rate : 1 812 Kbps\nVideo #1\nCodec ID : avc1\nCodec ID/Info : Advanced Video Coding\nDuration : 2h 26mn\nBit rate mode : Variable\nBit rate : 1 488 Kbps\nWidth : 1 280 pixels\nHeight : 720 pixels\nDisplay aspect ratio : 16:9\nFrame rate mode : Constant\nFrame rate : 23.976 fps\nResolution : 24 bits\nColorimetry : 4:2:0\nScan type : Progressive\nBits/(Pixel*Frame) : 0.067\nStream size : 1.52 GiB (82%)\nAudio #2\nID : 2\nFormat : AAC\nFormat/Info : Advanced Audio Codec\nFormat version : Version 4\nFormat profile : LC\nFormat settings, SBR : No\nCodec ID : 40\nDuration : 2h 26mn\nBit rate mode : Variable\nBit rate : 320 Kbps\nChannel(s) : 6 channels\nChannel positions : Front: L C R, Rear: L R, LFE\nSampling rate : 44.1 KHz\nResolution : 16 bits\nStream size : 335 MiB (18%)","torrent":{"xt":"urn:btih:9d5726fade78ca93b68b47513b450043aa5905c1","amp;dn":"+Sex+And+The+City+2+2010+720p.BRRip.H264.Feel-Free","amp;tr":["udp%3A%2F%2Ftracker.openbittorrent.com%3A80","udp%3A%2F%2Fopen.demonii.com%3A1337","udp%3A%2F%2Ftracker.coppersurfer.tk%3A6969","udp%3A%2F%2Fexodus.desync.com%3A6969"],"infoHash":"9d5726fade78ca93b68b47513b450043aa5905c1","infoHashBuffer":{"type":"Buffer","data":[157,87,38,250,222,120,202,147,182,139,71,81,59,69,0,67,170,89,5,193]},"announce":[],"urlList":[]}}